<!--?xml version="1.0" encoding="utf-8"?-->
<!-- Svg Vector Icons : http://www.onlinewebfonts.com/icon -->

<svg version="1.1" xmlns="http://www.w3.org/2000/svg" xmlns:xlink="http://www.w3.org/1999/xlink" x="0px" y="0px" viewBox="0 0 256 256" enable-background="new 0 0 256 256" xml:space="preserve">
<metadata> Svg Vector Icons : http://www.onlinewebfonts.com/icon </metadata>
<g> <path fill="#ffffff" data-title="Layer 0" xs="0" d="M232,44.3L216.9,38v102l27.5-66.2C249,62.3,243.7,49.1,232,44.3 M11.7,86.1l56,135 c3.4,8.4,11.4,14,20.5,14.2c2.9,0,6-0.6,8.9-1.8l83.3-34.5c8.5-3.5,13.7-11.9,13.9-20.2c0.1-2.9-0.5-6.2-1.5-9.2l-56.5-135 c-3.3-8.5-11.4-14.1-20.5-14.1c-2.9,0-5.9,0.7-8.7,1.7L24,56.8C12.5,61.5,7,74.6,11.7,86.1 M194.2,43.2c0-12.5-10.1-22.6-22.6-22.6 h-16.4l39,94.2"/></g>
</svg>